<?xml version="1.0" encoding="UTF-8"?>
<!DOCTYPE svg PUBLIC "-//W3C//DTD SVG 1.1//EN" "http://www.w3.org/Graphics/SVG/1.1/DTD/svg11.dtd">
<!-- Creator: CorelDRAW -->
<svg xmlns="http://www.w3.org/2000/svg" xml:space="preserve" width="6.82666in" height="6.82666in" style="shape-rendering:geometricPrecision; text-rendering:geometricPrecision; image-rendering:optimizeQuality; fill-rule:evenodd; clip-rule:evenodd"
viewBox="0 0 6.82666 6.82666"
 xmlns:xlink="http://www.w3.org/1999/xlink">
 <defs>
  <style type="text/css">
   <![CDATA[
    .fil0 {fill:#9E9E9E}
    .fil1 {fill:#FFFFFE;fill-rule:nonzero}
   ]]>
  </style>
 </defs>
 <g id="Layer_x0020_1">
  <metadata id="CorelCorpID_0Corel-Layer"/>
  <rect class="fil0" width="6.82666" height="6.82666" rx="0.853335" ry="0.853335"/>
  <g id="_472070512">
   <path id="_472070656" class="fil1" d="M0.959996 1.1732c-0.0589094,0 -0.106669,0.0477598 -0.106669,0.106669 0,0.0589094 0.0477598,0.106669 0.106669,0.106669l0.699508 0 0.184783 0.297976 0.527512 3.02607 0.105 -0.0179173 -0.105083 0.0183189c0.00911417,0.0522913 0.054878,0.0889961 0.106299,0.0883504l3.06151 0c0.0589094,0 0.106669,-0.0477598 0.106669,-0.106669 0,-0.0589094 -0.0477598,-0.106669 -0.106669,-0.106669l-2.9732 0 -0.0729803 -0.418657 3.01706 0c0.0830276,0 0.154681,-0.033126 0.208181,-0.086626 0.0531102,-0.0531102 0.0873307,-0.126957 0.0951496,-0.207543l0.158 -1.62741c0.00107087,-0.0110433 0.00159843,-0.0195984 0.00159843,-0.0257008 0,-0.0773661 -0.0333346,-0.146764 -0.0857441,-0.198268 -0.0496142,-0.0487559 -0.117421,-0.0814016 -0.189894,-0.0884291 -0.0120709,-0.00116535 -0.0219016,-0.00177165 -0.0292953,-0.00177165l-3.56479 0 -0.0518425 -0.29739c-0.00175197,-0.0151063 -0.00676772,-0.0300787 -0.015315,-0.0438583l-0.00034252 0.000212598 -0.222425 -0.358677c-0.0175669,-0.0348071 -0.0536339,-0.058685 -0.0952835,-0.058685l-0.758402 0zm4.12952 0.865067l0 0.65422 0.728264 0 -0.0214252 0.159378 -0.706839 0 0 0.45102 0.673075 0 -0.0207677 0.159378 -0.652307 0 0 0.598413 -0.144874 0 0 -0.598413 -0.891307 0 0 0.598413 -0.144874 0 0 -0.598413 -0.891307 0 0 0.598413 -0.144874 0 0 -0.598413 -0.55648 0 -0.0328228 -0.159378 0.589303 0 0 -0.45102 -0.61063 0 -0.0338622 -0.159378 0.644492 0 0 -0.65422 0.144874 0 0 0.65422 0.891307 0 0 -0.65422 0.144874 0 0 0.65422 0.891307 0 0 -0.65422 0.144874 0zm-0.144874 1.26462l0 -0.45102 -0.891307 0 0 0.45102 0.891307 0zm-1.92749 0l0.891307 0 0 -0.45102 -0.891307 0 0 0.45102z"/>
   <g>
    <path id="_472070032" class="fil1" d="M2.9192 4.87853c0.10698,0 0.20385,0.043374 0.273972,0.113496 0.0701181,0.070122 0.113492,0.166992 0.113492,0.273972 0,0.10698 -0.043374,0.20385 -0.113496,0.273972 -0.0701142,0.0701142 -0.166988,0.113492 -0.273969,0.113492 -0.10698,0 -0.20385,-0.043378 -0.273972,-0.113492 -0.070122,-0.070122 -0.113496,-0.166992 -0.113496,-0.273972 0,-0.10698 0.043374,-0.20385 0.113496,-0.273972 0.0701142,-0.070122 0.166988,-0.113496 0.273972,-0.113496z"/>
    <path id="_472070200" class="fil1" d="M4.92741 4.87853c0.10698,0 0.20385,0.043374 0.273972,0.113496 0.0701181,0.070122 0.113492,0.166992 0.113492,0.273972 0,0.10698 -0.043374,0.20385 -0.113496,0.273972 -0.0701142,0.0701142 -0.166988,0.113492 -0.273969,0.113492 -0.10698,0 -0.20385,-0.043378 -0.273972,-0.113492 -0.070122,-0.070122 -0.113496,-0.166992 -0.113496,-0.273972 0,-0.10698 0.043374,-0.20385 0.113496,-0.273972 0.0701142,-0.070122 0.166988,-0.113496 0.273972,-0.113496z"/>
   </g>
  </g>
 </g>
</svg>
